<svg width="180" height="180" viewBox="0 0 180 180" fill="none" xmlns="http://www.w3.org/2000/svg">
<g clip-path="url(#clip0_1_657)">
<path d="M124.186 106.627H117.352C116.829 103.785 116.081 100.988 115.117 98.2677L121.03 94.8544C121.636 94.5049 122.078 93.9287 122.259 93.2533C122.44 92.5776 122.345 91.858 121.995 91.2526L114.659 78.5468C113.93 77.2857 112.318 76.854 111.057 77.5817L105.132 81.0021C103.257 78.8076 101.21 76.7612 99.0158 74.8867L102.436 68.9635C102.786 68.3578 102.881 67.6378 102.7 66.9624C102.519 66.2871 102.077 65.7109 101.471 65.3614L88.7632 58.0257C87.5021 57.2969 85.8899 57.7293 85.1614 58.9904L81.7474 64.903C79.026 63.9383 76.2275 63.1905 73.3852 62.6677V55.8362C73.3852 54.3797 72.2046 53.1995 70.7484 53.1995H56.0746C54.6184 53.1995 53.4379 54.3797 53.4379 55.8362V62.6677C50.5958 63.1905 47.797 63.9383 45.0756 64.903L41.6616 58.9904C40.9331 57.7297 39.3202 57.2983 38.0598 58.0257L25.3519 65.3614C24.7461 65.7109 24.3042 66.2871 24.1232 66.9624C23.9421 67.6381 24.037 68.3581 24.3868 68.9635L27.8072 74.8867C25.6124 76.7612 23.5659 78.8073 21.6911 81.0021L15.7658 77.5817C14.5048 76.8529 12.8921 77.2854 12.1641 78.5464L4.82695 91.2522C4.47715 91.8583 4.38258 92.578 4.56328 93.2533C4.74434 93.9287 5.18625 94.5049 5.79199 94.8544L11.7053 98.2677C10.7406 100.988 9.99246 103.786 9.47004 106.627H2.63672C1.18055 106.627 0 107.808 0 109.264V123.935C0 125.392 1.18055 126.572 2.63672 126.572H9.47004C9.99281 129.414 10.7409 132.211 11.7053 134.932L5.79199 138.345C5.18625 138.695 4.74434 139.271 4.56328 139.946C4.38223 140.622 4.47715 141.341 4.82695 141.947L12.1641 154.653C12.8925 155.914 14.5044 156.345 15.7658 155.618L21.6911 152.197C23.5659 154.392 25.6127 156.438 27.8072 158.313L24.3868 164.236C24.037 164.842 23.9425 165.562 24.1232 166.237C24.3042 166.912 24.7461 167.489 25.3519 167.838L38.0598 175.174C39.3202 175.901 40.9328 175.47 41.6616 174.209L45.0756 168.297C47.7967 169.261 50.5951 170.009 53.4379 170.532V177.363C53.4379 178.82 54.6184 180 56.0746 180H70.7484C72.2046 180 73.3852 178.82 73.3852 177.363V170.532C76.2279 170.009 79.0263 169.261 81.7474 168.297L85.1614 174.209C85.8899 175.47 87.5029 175.901 88.7632 175.174L101.471 167.838C102.077 167.489 102.519 166.912 102.7 166.237C102.881 165.561 102.786 164.842 102.436 164.236L99.0158 158.313C101.211 156.438 103.257 154.392 105.132 152.197L111.057 155.618C112.318 156.346 113.93 155.914 114.659 154.653L121.995 141.947C122.345 141.341 122.44 140.621 122.259 139.946C122.078 139.271 121.636 138.695 121.03 138.345L115.117 134.932C116.081 132.212 116.829 129.414 117.352 126.572H124.186C125.642 126.572 126.823 125.392 126.823 123.935V109.264C126.823 107.808 125.642 106.627 124.186 106.627ZM121.549 121.299H115.11C113.796 121.299 112.682 122.266 112.499 123.568C111.942 127.527 110.904 131.41 109.413 135.11C108.922 136.328 109.403 137.722 110.54 138.378L116.11 141.594L111.41 149.733L105.829 146.512C104.692 145.854 103.247 146.135 102.437 147.167C99.9714 150.309 97.1276 153.152 93.985 155.617C92.9521 156.428 92.6726 157.874 93.3289 159.011L96.5503 164.589L88.4095 169.289L85.1934 163.719C84.5364 162.582 83.1424 162.101 81.925 162.592C78.2241 164.082 74.34 165.12 70.3811 165.677C69.0796 165.86 68.1114 166.974 68.1114 168.288V174.727H58.7109V168.289C58.7109 166.975 57.7431 165.861 56.4413 165.678C52.482 165.121 48.5979 164.083 44.8973 162.592C43.6788 162.101 42.2856 162.583 41.6289 163.719L38.4128 169.289L30.272 164.59L33.4937 159.011C34.1501 157.874 33.8702 156.428 32.8377 155.618C29.6954 153.153 26.8516 150.309 24.3854 147.168C23.5754 146.135 22.1295 145.856 20.9932 146.512L15.4125 149.733L10.7125 141.594L16.2823 138.379C17.4199 137.722 17.9009 136.329 17.4097 135.11C15.9187 131.409 14.8802 127.526 14.3237 123.568C14.1405 122.267 13.0271 121.299 11.7127 121.299H5.27344V111.901H11.7127C13.0268 111.901 14.1405 110.933 14.3237 109.632C14.8802 105.674 15.9187 101.791 17.4097 98.0901C17.9005 96.8716 17.4199 95.4777 16.2823 94.8213L10.7125 91.6059L15.4125 83.4669L20.9932 86.6883C22.1295 87.3446 23.5754 87.0648 24.3854 86.0326C26.8513 82.8903 29.6951 80.0476 32.8377 77.5824C33.8706 76.7721 34.1501 75.3258 33.4937 74.1891L30.272 68.6106L38.4128 63.9112L41.6289 69.4807C42.2856 70.6183 43.6792 71.0989 44.897 70.6081C48.5993 69.1172 52.4834 68.079 56.4413 67.5225C57.7427 67.3393 58.7109 66.2259 58.7109 64.9114V58.4736H68.1114V64.9114C68.1114 66.2256 69.0792 67.3393 70.3811 67.5225C74.339 68.079 78.223 69.1172 81.9253 70.6081C83.1431 71.0993 84.5371 70.6183 85.1938 69.4807L88.4099 63.9112L96.5507 68.6106L93.3293 74.1891C92.6729 75.3258 92.9524 76.7724 93.9853 77.5824C97.1276 80.0476 99.9714 82.8907 102.438 86.0326C103.248 87.0651 104.694 87.345 105.83 86.6883L111.411 83.4669L116.11 91.6059L110.54 94.8213C109.403 95.4777 108.922 96.872 109.413 98.0901C110.904 101.79 111.942 105.673 112.499 109.632C112.682 110.933 113.796 111.901 115.11 111.901H121.549V121.299Z" fill="black"/>
<path d="M177.363 27.9622H172.493C172.103 26.8668 171.656 25.7899 171.154 24.7398L174.593 21.3082C175.089 20.8136 175.368 20.1421 175.368 19.4414C175.368 18.7407 175.089 18.0696 174.593 17.5746L162.382 5.39121C161.352 4.36465 159.687 4.36465 158.657 5.39121L155.212 8.82844C154.157 8.3257 153.075 7.87816 151.973 7.48828V2.63672C151.973 1.1802 150.793 0 149.337 0H132.067C130.61 0 129.43 1.1802 129.43 2.63672V7.48898C128.329 7.87852 127.247 8.32641 126.192 8.82914L122.746 5.39191C121.718 4.3657 120.051 4.36535 119.022 5.39191L106.81 17.5753C106.314 18.07 106.035 18.7414 106.035 19.4421C106.035 20.1428 106.314 20.8139 106.81 21.3089L110.25 24.7405C109.747 25.791 109.3 26.8675 108.91 27.9629H104.04C102.584 27.9629 101.404 29.1431 101.404 30.5996V47.8294C101.404 49.2859 102.584 50.4661 104.04 50.4661H108.91C109.3 51.5616 109.747 52.6381 110.25 53.6885L106.81 57.1201C106.314 57.6148 106.035 58.2863 106.035 58.9869C106.035 59.6876 106.314 60.3587 106.81 60.8537L119.022 73.0371C120.051 74.0637 121.717 74.0637 122.746 73.0371L126.192 69.5999C127.247 70.1026 128.329 70.5502 129.43 70.94V75.7923C129.43 77.2488 130.61 78.429 132.067 78.429H149.337C150.793 78.429 151.973 77.2488 151.973 75.7923V70.94C153.075 70.5505 154.157 70.1026 155.212 69.5999L158.657 73.0371C159.686 74.0637 161.353 74.064 162.382 73.0371L174.593 60.8537C175.089 60.3591 175.368 59.6876 175.368 58.9869C175.368 58.2863 175.089 57.6151 174.593 57.1201L171.154 53.6885C171.656 52.6384 172.103 51.5616 172.493 50.4661H177.363C178.82 50.4661 180 49.2859 180 47.8294V30.5989C180 29.1428 178.819 27.9622 177.363 27.9622ZM174.726 45.192H170.573C169.399 45.192 168.367 45.9682 168.04 47.096C167.457 49.1147 166.643 51.0732 165.622 52.9168C165.051 53.9466 165.233 55.2294 166.066 56.0609L168.998 58.9859L160.52 67.4448L157.579 64.511C156.749 63.6824 155.471 63.502 154.444 64.0687C152.596 65.0872 150.632 65.8997 148.607 66.4829C147.478 66.8081 146.7 67.8414 146.7 69.0166V73.1542H134.704V69.0166C134.704 67.8414 133.926 66.8081 132.797 66.4829C130.772 65.8997 128.808 65.0872 126.96 64.0687C125.933 63.5017 124.655 63.682 123.825 64.511L120.884 67.4448L112.406 58.9859L115.338 56.0609C116.171 55.2294 116.353 53.9462 115.782 52.9168C114.761 51.0722 113.947 49.114 113.364 47.0964C113.037 45.9686 112.005 45.192 110.831 45.192H106.678V33.2357H110.831C112.005 33.2357 113.037 32.4594 113.364 31.3313C113.947 29.314 114.761 27.3554 115.782 25.5108C116.353 24.4811 116.171 23.1982 115.338 22.3668L112.406 19.4418L120.884 10.9828L123.825 13.9166C124.655 14.7452 125.934 14.9259 126.96 14.3589C128.808 13.3404 130.772 12.5279 132.797 11.9447C133.926 11.6195 134.704 10.5862 134.704 9.41098V5.27344H146.7V9.41098C146.7 10.5862 147.478 11.6195 148.607 11.9447C150.632 12.5279 152.596 13.3404 154.444 14.3589C155.472 14.9256 156.749 14.7456 157.579 13.9166L160.52 10.9828L168.998 19.4418L166.066 22.3668C165.233 23.1982 165.051 24.4814 165.622 25.5108C166.643 27.354 167.457 29.3126 168.04 31.3316C168.367 32.4594 169.399 33.2357 170.573 33.2357H174.726V45.192Z" fill="black"/>
<path d="M140.702 18.2053C137.239 18.2053 133.804 19.0635 130.769 20.6874C129.485 21.374 129 22.9718 129.687 24.2557C130.374 25.5396 131.971 26.0248 133.256 25.3371C135.529 24.1214 138.104 23.4788 140.702 23.4788C149.402 23.4788 156.479 30.5374 156.479 39.2136C156.479 47.8902 149.402 54.9489 140.702 54.9489C132.002 54.9489 124.925 47.8902 124.925 39.2136C124.925 36.7467 125.48 34.3863 126.575 32.1968C127.227 30.8946 126.7 29.3105 125.397 28.659C124.095 28.0079 122.511 28.5346 121.86 29.8371C120.394 32.7656 119.651 35.9206 119.651 39.214C119.651 50.798 129.094 60.2227 140.702 60.2227C152.31 60.2227 161.753 50.798 161.753 39.214C161.753 27.63 152.31 18.2053 140.702 18.2053Z" fill="black"/>
<path d="M63.4112 78.8857C42.6121 78.8857 25.6907 95.8043 25.6907 116.6C25.6907 121.69 26.6884 126.629 28.6561 131.281C29.2232 132.622 30.7704 133.249 32.1116 132.682C33.4528 132.115 34.08 130.567 33.5126 129.226C31.8212 125.228 30.9638 120.98 30.9638 116.6C30.9638 98.7121 45.5195 84.1592 63.4109 84.1592C81.3022 84.1592 95.858 98.7125 95.858 116.6C95.858 134.487 81.3022 149.04 63.4109 149.04C53.8209 149.04 44.7728 144.831 38.587 137.491C37.6487 136.378 35.9855 136.236 34.8717 137.174C33.7583 138.113 33.6163 139.776 34.555 140.889C41.7451 149.421 52.2628 154.314 63.4112 154.314C84.2107 154.314 101.132 137.395 101.132 116.6C101.132 95.8043 84.2104 78.8857 63.4112 78.8857Z" fill="black"/>
<path d="M63.4113 95.3701C65.5755 95.3701 67.7095 95.6939 69.7535 96.3323C71.1439 96.7669 72.6222 95.9917 73.0564 94.6016C73.4906 93.2115 72.7158 91.7328 71.326 91.2983C68.7723 90.5006 66.1095 90.0963 63.4117 90.0963C48.7954 90.0963 36.9045 101.985 36.9045 116.6C36.9045 131.213 48.7958 143.102 63.4117 143.102C78.0279 143.102 89.9191 131.213 89.9191 116.6C89.9191 109.715 87.2915 103.192 82.5208 98.2311C81.5115 97.1824 79.8419 97.149 78.7929 98.1587C77.7431 99.168 77.7108 100.837 78.7201 101.887C82.5416 105.86 84.646 111.085 84.646 116.6C84.646 128.306 75.1204 137.829 63.412 137.829C51.7036 137.829 42.1783 128.306 42.1783 116.6C42.1783 104.894 51.7029 95.3701 63.4113 95.3701Z" fill="black"/>
<path d="M177.363 103.524H175.208C174.756 100.327 173.493 97.3863 171.634 94.918L173.164 93.3887C174.194 92.359 174.194 90.6894 173.164 89.66C172.134 88.6306 170.465 88.6299 169.436 89.6597L167.906 91.1897C165.437 89.3313 162.496 88.0681 159.297 87.6157V85.4613C159.297 84.0048 158.117 82.8246 156.66 82.8246C155.204 82.8246 154.024 84.0048 154.024 85.4613V87.6157C150.826 88.0681 147.884 89.3313 145.415 91.1897L143.885 89.6597C142.855 88.6296 141.185 88.6299 140.156 89.66C139.127 90.6901 139.127 92.3593 140.157 93.3887L141.687 94.9183C139.828 97.3867 138.565 100.327 138.113 103.524H135.957C134.501 103.524 133.321 104.704 133.321 106.161C133.321 107.617 134.501 108.798 135.957 108.798H138.113C138.565 111.995 139.828 114.935 141.687 117.404L140.157 118.933C139.127 119.962 139.127 121.632 140.157 122.662C140.671 123.177 141.346 123.434 142.021 123.434C142.696 123.434 143.371 123.177 143.886 122.662L145.416 121.132C147.885 122.99 150.826 124.253 154.024 124.706V126.86C154.024 128.317 155.205 129.497 156.661 129.497C158.118 129.497 159.298 128.317 159.298 126.86V124.706C162.496 124.253 165.437 122.991 167.906 121.132L169.436 122.662C169.951 123.177 170.626 123.434 171.3 123.434C171.975 123.434 172.65 123.177 173.165 122.662C174.195 121.632 174.195 119.963 173.165 118.933L171.635 117.404C173.493 114.936 174.756 111.995 175.209 108.798H177.364C178.82 108.798 180.001 107.618 180.001 106.161C180.001 104.705 178.819 103.524 177.363 103.524ZM156.66 119.617C149.239 119.617 143.201 113.581 143.201 106.161C143.201 98.7409 149.239 92.7042 156.66 92.7042C164.082 92.7042 170.12 98.7409 170.12 106.161C170.12 113.581 164.082 119.617 156.66 119.617Z" fill="black"/>
<path d="M156.66 97.4236C151.842 97.4236 147.922 101.343 147.922 106.161C147.922 110.978 151.842 114.898 156.66 114.898C161.478 114.898 165.398 110.979 165.398 106.161C165.399 101.343 161.478 97.4236 156.66 97.4236ZM156.66 109.624C154.749 109.624 153.196 108.071 153.196 106.161C153.196 104.251 154.75 102.697 156.66 102.697C158.571 102.697 160.125 104.251 160.125 106.161C160.125 108.071 158.571 109.624 156.66 109.624Z" fill="black"/>
</g>
<defs>
<clipPath id="clip0_1_657">
<rect width="180" height="180" fill="white"/>
</clipPath>
</defs>
</svg>
