<svg width="170" height="170" viewBox="0 0 170 170" fill="none" xmlns="http://www.w3.org/2000/svg">
<g clip-path="url(#clip0_1_828)">
<path d="M170 77.775C170 66.7108 164.34 56.3691 155.083 50.2421C155.153 49.555 155.189 48.8608 155.189 48.1596C155.189 34.3329 146.158 23.2687 133.974 21.6396C131.566 9.38539 120.714 0.184143 108.021 0.184143C98.1892 0.184143 89.5971 5.54623 85 13.5079C80.4029 5.54623 71.8108 0.184143 61.9792 0.184143C49.2929 0.184143 38.4412 9.37831 36.0258 21.6183C23.9133 23.1696 14.8042 34.2691 14.8042 48.1525C14.8042 48.8608 14.8396 49.555 14.9104 50.235C5.6525 56.3621 0 66.7037 0 77.7679C0 84.3908 1.9975 90.7375 5.79417 96.2837C1.99042 101.83 0 108.177 0 114.8C0 126.43 6.16958 137.147 16.2138 143.147C20.6196 159.141 34.9846 170.177 51.68 170.177C66.3708 170.177 79.0854 161.535 85.0071 149.069C90.9288 161.535 103.636 170.177 118.334 170.177C135.03 170.177 149.395 159.141 153.8 143.147C163.837 137.147 170.014 126.43 170.014 114.8C170.014 108.177 168.017 101.83 164.22 96.2837C168.024 90.7375 170.014 84.3908 170.014 77.7679L170 77.775ZM51.6729 163.101C37.7683 163.101 25.8542 153.609 22.7233 140.023L22.3621 138.458L20.9454 137.7C12.3958 133.124 7.08333 124.348 7.08333 114.814C7.08333 108.92 9.11625 103.289 12.9696 98.5221L14.7617 96.2979L12.9696 94.0737C9.12333 89.3066 7.08333 83.6754 7.08333 77.7821C7.08333 68.4604 12.2188 59.7833 20.485 55.1437L22.6808 53.9112C22.6808 53.9112 21.8946 49.2858 21.8946 48.1596C21.8946 38.505 28.2767 28.5246 39.1425 28.5246H42.4221L42.6771 25.2591C43.4563 15.1796 51.935 7.27456 61.9863 7.27456C72.7317 7.27456 81.4654 16.0083 81.4654 26.7537V63.7571H59.7692C58.1896 57.6512 52.6433 53.1321 46.0488 53.1321C38.2358 53.1321 31.8821 59.4858 31.8821 67.2987C31.8821 75.1116 38.2358 81.4654 46.0488 81.4654C52.6362 81.4654 58.1896 76.9462 59.7692 70.8404H81.4654V113.34H59.7692C58.1896 107.235 52.6433 102.715 46.0488 102.715C38.2358 102.715 31.8821 109.069 31.8821 116.882C31.8821 124.695 38.2358 131.049 46.0488 131.049C52.6362 131.049 58.1896 126.53 59.7692 120.424H81.4654V133.322C81.4654 149.742 68.1063 163.108 51.68 163.108L51.6729 163.101ZM53.125 67.2916C53.125 71.1946 49.9446 74.375 46.0417 74.375C42.1388 74.375 38.9583 71.1946 38.9583 67.2916C38.9583 63.3887 42.1388 60.2083 46.0417 60.2083C49.9446 60.2083 53.125 63.3887 53.125 67.2916ZM53.125 116.875C53.125 120.778 49.9446 123.958 46.0417 123.958C42.1388 123.958 38.9583 120.778 38.9583 116.875C38.9583 112.972 42.1388 109.792 46.0417 109.792C49.9446 109.792 53.125 112.972 53.125 116.875ZM157.03 98.515C160.877 103.282 162.917 108.913 162.917 114.807C162.917 124.348 157.604 133.117 149.055 137.693L147.638 138.451L147.277 140.016C144.139 153.602 132.232 163.094 118.327 163.094C101.908 163.094 88.5417 149.735 88.5417 133.308V106.243H127.5V81.005C133.606 79.4254 138.125 73.8791 138.125 67.2846C138.125 59.4716 131.771 53.1179 123.958 53.1179C116.145 53.1179 109.792 59.4716 109.792 67.2846C109.792 73.8721 114.311 79.4254 120.417 81.005V99.1596H88.5417V26.7466C88.5417 16.0012 97.2754 7.26748 108.021 7.26748C118.072 7.26748 126.551 15.1654 127.33 25.2521L127.762 28.5175H131.042C141.723 28.5175 148.105 38.505 148.105 48.1525C148.105 49.2787 147.326 53.9041 147.326 53.9041L149.515 55.1366C157.781 59.7762 162.917 68.4533 162.917 77.775C162.917 83.6683 160.884 89.2996 157.03 94.0666L155.238 96.2908L157.03 98.515ZM123.958 74.375C120.055 74.375 116.875 71.1946 116.875 67.2916C116.875 63.3887 120.055 60.2083 123.958 60.2083C127.861 60.2083 131.042 63.3887 131.042 67.2916C131.042 71.1946 127.861 74.375 123.958 74.375Z" fill="black"/>
</g>
<defs>
<clipPath id="clip0_1_828">
<rect width="170" height="170" fill="white"/>
</clipPath>
</defs>
</svg>
