<svg width="180" height="180" viewBox="0 0 180 180" fill="none" xmlns="http://www.w3.org/2000/svg">
<g clip-path="url(#clip0_1_671)">
<path d="M175.335 152.833C172.958 150.46 169.966 148.933 166.722 148.395V60.3833C166.722 51.2722 159.308 43.8602 150.195 43.8602H122.94C122.998 42.7387 122.999 41.6141 122.941 40.493L125.365 39.4903C130.989 37.1619 133.67 30.6896 131.341 25.0632C131.319 25.0101 131.295 24.9578 131.27 24.9064C131.151 24.6621 130.994 24.4353 130.807 24.2392C129.804 23.1845 128.134 23.1444 127.08 24.1481C126.247 24.9416 126.047 26.1499 126.494 27.142C127.666 30.0677 126.265 33.4104 123.348 34.618L119.151 36.3547C118.065 36.804 117.407 37.9178 117.538 39.0856C117.769 41.1419 117.768 43.2281 117.535 45.2862C117.403 46.4544 118.06 47.5692 119.146 48.0192L123.348 49.7598C126.286 50.9758 127.686 54.3575 126.469 57.2969C125.88 58.7194 124.772 59.8275 123.348 60.417C121.924 61.0063 120.359 61.0066 118.935 60.4156L114.734 58.6754C113.648 58.2254 112.395 58.5489 111.662 59.4689C110.374 61.0864 108.899 62.5626 107.278 63.8567C106.36 64.5897 106.037 65.842 106.487 66.9273L108.227 71.1246C108.518 71.8267 108.666 72.5681 108.666 73.3278C108.666 75.6706 107.269 77.7628 105.104 78.6582C103.68 79.2485 102.113 79.2488 100.691 78.6589C99.268 78.0697 98.1603 76.9612 97.5703 75.5381L95.8301 71.3404C95.3805 70.2555 94.2667 69.5967 93.0995 69.7303C91.0475 69.9616 88.9616 69.9602 86.8994 69.7268C85.7329 69.5946 84.6167 70.2513 84.167 71.3376L82.4264 75.5392C81.5307 77.7023 79.4385 79.1001 77.0967 79.1001C76.343 79.1001 75.6012 78.9514 74.8921 78.6572C71.9548 77.4411 70.5542 74.0612 71.7702 71.1232L73.5105 66.922C73.9605 65.8357 73.6367 64.5824 72.7166 63.8501C71.0935 62.5581 69.6194 61.085 68.3348 59.472C67.6032 58.5527 66.3512 58.2289 65.2649 58.6775L61.0609 60.4153C60.3532 60.7085 59.6121 60.8576 58.858 60.8576C56.5163 60.8576 54.4241 59.4597 53.5284 57.2966C52.3112 54.3565 53.7115 50.9748 56.6492 49.7587L60.8468 48.022C61.9328 47.5727 62.5902 46.459 62.4591 45.2911C62.2281 43.2362 62.2292 41.1497 62.4623 39.0899C62.5944 37.9216 61.9374 36.8072 60.8514 36.3575L56.6492 34.6169C54.4864 33.7222 53.0889 31.629 53.0889 29.2837C53.0889 28.5237 53.2366 27.7826 53.528 27.0798C54.1172 25.6581 55.2253 24.5503 56.6488 23.9614C58.073 23.3722 59.6403 23.3719 61.062 23.9614L65.2632 25.7017C66.3484 26.151 67.6021 25.8282 68.3344 24.9085C69.6292 23.2833 71.1037 21.8074 72.717 20.5224C73.637 19.7898 73.9605 18.5365 73.5101 17.4501L71.7702 13.2528C71.4791 12.5504 71.3315 11.809 71.3315 11.0492C71.3315 8.70643 72.7289 6.61428 74.8939 5.71885C76.3173 5.12893 77.8842 5.12857 79.3067 5.71779C80.7294 6.30736 81.8372 7.41549 82.4271 8.83861L84.1674 13.0363C84.6174 14.1219 85.7322 14.7807 86.898 14.6464C88.95 14.4154 91.0359 14.4165 93.0981 14.6499C94.2635 14.78 95.3808 14.1251 95.8305 13.0391L97.571 8.83791C98.4668 6.67475 100.559 5.27693 102.901 5.27693C103.655 5.27693 104.396 5.42564 105.105 5.7199C106.529 6.30912 107.637 7.41725 108.227 8.83967C108.816 10.2624 108.816 11.8304 108.227 13.2535L106.487 17.4544C106.037 18.5407 106.361 19.7937 107.281 20.5263C108.904 21.8187 110.378 23.2917 111.663 24.9047C112.395 25.8244 113.646 26.1478 114.733 25.6992L118.942 23.959C119.404 23.766 119.898 23.6338 120.408 23.5666C121.851 23.3764 122.868 22.0517 122.678 20.6082C122.487 19.1644 121.158 18.1494 119.719 18.3385C118.748 18.4665 117.803 18.72 116.919 19.0891L114.492 20.0921C113.736 19.254 112.935 18.4538 112.094 17.6966L113.099 15.2708C114.227 12.5458 114.227 9.5449 113.099 6.821C111.97 4.09674 109.847 1.97506 107.124 0.847949C105.773 0.287559 104.352 0.00349615 102.901 0.00349615C98.418 0.00349615 94.4137 2.67924 92.6991 6.81994L91.6943 9.24537C90.5637 9.18631 89.4317 9.18596 88.3032 9.24361L87.2984 6.81994C86.1702 4.09639 84.0485 1.97471 81.325 0.846543C78.6 -0.282324 75.5984 -0.281621 72.8755 0.847246C68.7341 2.56041 66.058 6.56506 66.058 11.0492C66.058 12.5054 66.341 13.9261 66.899 15.2722L67.903 17.6945C67.0642 18.4514 66.2637 19.2529 65.5054 20.0942L63.0807 19.0898C60.3571 17.9617 57.3569 17.9613 54.6319 19.0895C51.9066 20.2176 49.7846 22.339 48.6567 25.0611C48.0985 26.4069 47.8155 27.8276 47.8155 29.2844C47.8155 33.7707 50.4916 37.7768 54.6319 39.4899L57.0573 40.4947C56.9993 41.6158 56.9986 42.7398 57.0545 43.8602H29.8053C20.6924 43.8602 13.2783 51.2726 13.2783 60.3833V148.397C5.75558 149.657 0.00366211 156.212 0.00366211 164.089C0.00366211 168.334 1.65847 172.329 4.66433 175.339C7.66948 178.345 11.665 180 15.915 180H164.086C172.859 180 179.997 172.862 179.997 164.089C179.997 159.841 178.342 155.845 175.335 152.833ZM58.8577 66.131C60.3089 66.131 61.7296 65.8469 63.0782 65.2876L65.5047 64.2846C66.2609 65.1227 67.0621 65.9229 67.9027 66.6801L66.8979 69.1056C64.5695 74.7309 67.2509 81.2014 72.8738 83.5288C74.2252 84.0892 75.6462 84.3732 77.0964 84.3732C81.5792 84.3732 85.5835 81.6975 87.298 77.5564L88.3028 75.131C89.4334 75.1897 90.5655 75.1904 91.694 75.1328L92.6987 77.5564C93.8269 80.28 95.9486 82.4017 98.6721 83.5302C100.034 84.0944 101.465 84.3767 102.897 84.3767C104.328 84.3767 105.76 84.0941 107.121 83.5295C111.263 81.8163 113.939 77.8117 113.939 73.3271C113.939 71.8706 113.656 70.4499 113.098 69.1042L112.093 66.6812C112.933 65.9229 113.734 65.1217 114.491 64.2821L116.915 65.2862C119.638 66.4165 122.639 66.4175 125.365 65.2883C126.906 64.6502 128.253 63.6947 129.338 62.4927H143.674C146.108 62.4927 148.089 64.4734 148.089 66.9083V130.93C148.089 133.072 146.346 134.815 144.204 134.815H35.7955C33.6531 134.815 31.9104 133.072 31.9104 130.93V66.908C31.9104 64.473 33.8915 62.4923 36.326 62.4923H50.6673C52.7208 64.769 55.6655 66.131 58.8577 66.131ZM164.085 174.727H15.915C13.0737 174.727 10.4025 173.62 8.3944 171.612C6.38417 169.599 5.2771 166.927 5.2771 164.089C5.2771 158.221 10.0492 153.447 15.915 153.447H33.9818C35.4383 153.447 36.6185 152.267 36.6185 150.81C36.6185 149.354 35.4383 148.174 33.9818 148.174H18.5517V60.3833C18.5517 54.18 23.6002 49.1337 29.8053 49.1337H49.5662C48.0619 51.4884 47.4643 54.3814 48.0229 57.2196H36.3264C30.9837 57.2196 26.6373 61.566 26.6373 66.9087V130.93C26.6373 135.98 30.7457 140.088 35.7955 140.088H144.205C149.255 140.088 153.363 135.98 153.363 130.93V66.908C153.363 61.5656 149.016 57.2189 143.674 57.2189H131.974C132.532 54.3811 131.935 51.4881 130.431 49.1329H150.195C156.4 49.1329 161.449 54.1796 161.449 60.3826V148.173H44.458C43.0015 148.173 41.8213 149.354 41.8213 150.81C41.8213 152.266 43.0015 153.446 44.458 153.446H60.3149C61.5559 160.091 67.3954 165.139 74.395 165.139H105.604C112.604 165.139 118.443 160.092 119.684 153.446H164.085C166.923 153.446 169.596 154.554 171.606 156.561C173.616 158.574 174.723 161.247 174.723 164.088C174.723 169.954 169.951 174.727 164.085 174.727ZM114.267 153.449C113.135 157.159 109.68 159.866 105.604 159.866H74.395C70.3193 159.866 66.8645 157.159 65.7325 153.449H114.267Z" fill="black"/>
<path d="M89.9984 25.4365C80.7615 25.4365 73.2468 32.9515 73.2468 42.1885C73.2468 51.4254 80.7618 58.9401 89.9984 58.9401C99.2357 58.9401 106.75 51.4251 106.75 42.1885C106.751 32.9512 99.2357 25.4365 89.9984 25.4365ZM89.9984 30.7096C96.328 30.7096 101.477 35.8589 101.477 42.1881C101.477 42.7559 101.434 43.3138 101.354 43.8598H78.6433C78.5632 43.3138 78.5203 42.7559 78.5203 42.1881C78.5199 35.8589 83.6692 30.7096 89.9984 30.7096ZM89.9984 53.6666C86.2775 53.6666 82.9661 51.886 80.8673 49.1332H99.1296C97.0307 51.886 93.7194 53.6666 89.9984 53.6666Z" fill="black"/>
<path d="M111.507 124.218C113.131 126.312 115.683 127.563 118.333 127.563C118.541 127.563 118.75 127.556 118.962 127.54C121.853 127.33 124.43 125.697 125.856 123.172L139.086 99.746C140.22 97.7369 140.505 95.4063 139.887 93.1831C139.268 90.9598 137.821 89.1109 135.812 87.9761C131.665 85.6343 126.384 87.1028 124.042 91.2498L117.201 103.364L115.125 100.686C113.712 98.8629 111.672 97.6992 109.383 97.4092C107.095 97.1188 104.829 97.7383 103.006 99.1519C101.182 100.566 100.018 102.605 99.7279 104.894C99.4382 107.183 100.057 109.448 101.471 111.272L111.507 124.218ZM104.96 105.557C105.072 104.665 105.526 103.871 106.237 103.32C106.833 102.858 107.549 102.614 108.292 102.614C108.434 102.614 108.577 102.623 108.721 102.641C109.613 102.754 110.407 103.208 110.958 103.918L115.463 109.729C116.004 110.427 116.86 110.809 117.738 110.743C118.619 110.679 119.409 110.179 119.843 109.41L128.634 93.8437C129.546 92.2279 131.603 91.6555 133.219 92.5682C134.002 93.0104 134.565 93.7308 134.806 94.5964C135.047 95.4622 134.936 96.3703 134.494 97.1529L121.264 120.579C120.709 121.563 119.705 122.199 118.581 122.28C117.464 122.362 116.358 121.868 115.675 120.986L105.639 108.042C105.088 107.331 104.847 106.449 104.96 105.557Z" fill="black"/>
<path d="M48.1688 105.579L51.5554 108.966L48.1688 112.352C44.7042 115.817 44.7042 121.454 48.1688 124.919C49.8472 126.597 52.0789 127.522 54.4526 127.522C56.8264 127.522 59.0577 126.597 60.7358 124.919L64.1227 121.532L67.509 124.919C69.1873 126.597 71.419 127.522 73.7928 127.522C76.1665 127.522 78.3979 126.597 80.0763 124.919C83.5409 121.454 83.5409 115.817 80.0763 112.352L76.6897 108.966L80.0763 105.579C83.5409 102.114 83.5409 96.4768 80.0763 93.0122C78.3979 91.3338 76.1665 90.4095 73.7928 90.4095C71.419 90.4095 69.1877 91.3338 67.509 93.0122L64.1227 96.3988L60.7361 93.0122C59.0577 91.3338 56.8264 90.4095 54.4526 90.4095C52.0789 90.4095 49.8475 91.3338 48.1688 93.0122C44.7042 96.4768 44.7042 102.114 48.1688 105.579ZM51.8975 96.7408C52.5799 96.0585 53.4872 95.6826 54.4523 95.6826C55.4173 95.6826 56.3243 96.0585 57.0067 96.7408L62.2573 101.992C62.752 102.486 63.4224 102.764 64.122 102.764C64.8213 102.764 65.4917 102.486 65.9867 101.992L71.2369 96.7412C71.9193 96.0588 72.8267 95.683 73.7917 95.683C74.7568 95.683 75.6638 96.0588 76.3458 96.7412C77.7545 98.1499 77.7545 100.442 76.3458 101.85L71.0952 107.101C70.0655 108.131 70.0655 109.801 71.0952 110.83L76.3458 116.081C77.7545 117.489 77.7545 119.782 76.3458 121.19C75.6638 121.872 74.7568 122.248 73.7917 122.248C72.8267 122.248 71.9193 121.872 71.2373 121.19L65.9867 115.939C65.492 115.444 64.8216 115.167 64.122 115.167C63.4227 115.167 62.7523 115.444 62.2573 115.939L57.0064 121.19C56.3243 121.872 55.4173 122.248 54.4523 122.248C53.4872 122.248 52.5799 121.872 51.8978 121.19C50.4888 119.781 50.4888 117.489 51.8978 116.08L57.1484 110.83C58.1781 109.8 58.1781 108.13 57.1484 107.101L51.8978 101.85C50.4891 100.442 50.4891 98.1495 51.8975 96.7408Z" fill="black"/>
</g>
<defs>
<clipPath id="clip0_1_671">
<rect width="180" height="180" fill="white"/>
</clipPath>
</defs>
</svg>
