<svg width="180" height="180" viewBox="0 0 180 180" fill="none" xmlns="http://www.w3.org/2000/svg">
<path d="M180 81.255V90L90 144L0 90V81.255L90 135.255L180 81.255ZM0 106.005V114.75L90 168.75L180 114.75V106.005L90 160.005L0 106.005ZM90 119.1L0.21 65.2275L90 11.355L179.79 65.2275L90 119.1ZM90 110.355L123.63 90.1725L90.315 70.185L56.685 90.36L90 110.355ZM165.21 65.2275L131.895 45.24L97.605 65.8125L130.92 85.8L165.21 65.2275ZM90 20.1L55.71 40.6725L90.315 61.4325L124.605 40.86L90 20.1ZM14.79 65.2275L49.395 85.995L83.025 65.82L48.42 45.06L14.79 65.235V65.2275Z" fill="black"/>
</svg>
