<svg width="173" height="173" viewBox="0 0 173 173" fill="none" xmlns="http://www.w3.org/2000/svg">
<path d="M170.189 165.071L144.311 139.193C148.78 133.643 151.447 126.578 151.447 118.938C151.447 101.061 136.886 86.5 119.01 86.5C101.133 86.5 86.5721 101.061 86.5721 118.938C86.5721 136.814 101.133 151.375 119.01 151.375C126.65 151.375 133.715 148.708 139.265 144.239L165.143 170.117L170.261 164.999L170.189 165.071ZM118.938 144.167C105.025 144.167 93.7083 132.85 93.7083 118.938C93.7083 105.025 105.025 93.7083 118.938 93.7083C132.85 93.7083 144.167 105.025 144.167 118.938C144.167 132.85 132.85 144.167 118.938 144.167ZM86.5 152.745C88.8067 154.907 91.2575 156.925 93.9967 158.583H0V18.0208C0 8.07333 8.07333 0 18.0208 0H140.563C150.51 0 158.583 8.07333 158.583 18.0208V93.9967C156.565 90.7529 154.114 87.7975 151.375 85.1304V18.0208C151.375 12.0379 146.545 7.20833 140.563 7.20833H18.0208C12.0379 7.20833 7.20833 12.0379 7.20833 18.0208V151.375H86.5V152.745ZM66.3888 28.8333H28.8333V129.75H73.3088C72.7321 127.443 72.3717 124.993 72.1554 122.542H36.0417V59.1804L66.3888 28.8333ZM36.0417 36.0417H48.9446L36.0417 48.9446V36.0417ZM122.542 36.0417H95.2221L64.875 66.3887V93.7083H79.4358C77.9942 96.015 76.6967 98.3938 75.6875 100.917H57.6667V63.3613L92.1946 28.8333H129.75V73.3088C127.443 72.7321 124.993 72.3717 122.542 72.1554V36.0417Z" fill="black"/>
</svg>
