<svg width="162" height="162" viewBox="0 0 162 162" fill="none" xmlns="http://www.w3.org/2000/svg">
<g clip-path="url(#clip0_1_623)">
<path d="M159.622 157.245H144.246V63.2467C144.246 61.9336 143.182 60.8689 141.869 60.8689H116.507C115.193 60.8689 114.129 61.9336 114.129 63.2467V157.245H96.0587V91.1449C96.0587 89.8318 94.9943 88.7671 93.6809 88.7671H68.3191C67.0057 88.7671 65.9413 89.8318 65.9413 91.1449V157.245H47.871V103.826C47.871 102.513 46.8066 101.448 45.4932 101.448H20.1313C18.8179 101.448 17.7536 102.513 17.7536 103.826V157.244H2.37779C1.06439 157.244 0 158.309 0 159.622C0 160.935 1.06439 162 2.37779 162H159.622C160.936 162 162 160.935 162 159.622C162 158.309 160.936 157.245 159.622 157.245ZM43.1154 157.245H22.5088V106.204H43.1154V157.245ZM91.3035 157.245H70.6969V93.5227H91.3035V157.245ZM139.491 157.245H118.885V65.6245H139.491V157.245Z" fill="black"/>
<path d="M154.409 1.8651C152.806 0.450451 150.673 -0.208623 148.553 0.0577909L128.264 2.5941C124.236 3.09751 121.291 6.87824 121.795 10.9102C122.305 14.9846 126.032 17.8882 130.112 17.3788L131.767 17.1722C106.865 46.0462 77.2594 60.9685 56.3393 68.468C30.2544 77.8194 9.95157 78.6192 9.75382 78.6259C5.65224 78.754 2.41604 82.1956 2.54007 86.2978C2.66284 90.3491 5.93226 93.5223 9.98385 93.5223C10.0591 93.5223 10.1348 93.5214 10.2123 93.5188C11.115 93.4916 32.6373 92.7316 60.992 82.6281C76.9319 76.948 91.9309 69.4077 105.571 60.2171C106.661 59.4836 106.948 58.0054 106.214 56.9166C105.481 55.8272 104.003 55.5396 102.914 56.2734C89.6034 65.2422 74.9617 72.6021 59.3957 78.1488C31.7377 88.0039 10.9397 88.7392 10.0699 88.7654L9.98385 88.7667C8.51952 88.7667 7.33742 87.6191 7.29313 86.1538C7.2482 84.6699 8.4189 83.4251 9.90348 83.3786C10.111 83.372 30.9932 82.6056 57.9441 72.9442C80.5225 64.8502 112.965 48.3233 139.3 15.5551C140.612 13.9237 139.225 11.4465 137.153 11.7063L129.523 12.6599C128.201 12.8235 126.916 11.9569 126.581 10.6653C126.177 9.11112 127.263 7.51137 128.854 7.31204L149.144 4.77572C150.729 4.57544 152.173 5.85594 152.173 7.44967V27.7392C152.173 29.2251 150.964 30.4341 149.478 30.4341C147.992 30.4341 146.783 29.2254 146.783 27.7392V21.5883C146.783 20.6166 146.155 19.7079 145.246 19.3646C144.307 19.0099 143.198 19.3076 142.563 20.0847C133.683 30.9663 123.571 40.8128 112.508 49.3507C111.469 50.1531 111.276 51.6462 112.079 52.686C112.881 53.7257 114.375 53.9177 115.414 53.1156C125.05 45.6785 133.982 37.2744 142.035 28.0749C142.211 32.0278 145.482 35.19 149.478 35.19C153.586 35.19 156.928 31.8478 156.928 27.7399V7.45031C156.928 5.31456 156.01 3.27849 154.409 1.8651Z" fill="black"/>
</g>
<defs>
<clipPath id="clip0_1_623">
<rect width="162" height="162" fill="white"/>
</clipPath>
</defs>
</svg>
