<svg width="172" height="172" viewBox="0 0 172 172" fill="none" xmlns="http://www.w3.org/2000/svg">
<g clip-path="url(#clip0_1_826)">
<path d="M139.75 172H89.5833C71.81 172 57.3333 157.523 57.3333 139.75V114.667H32.25C14.4767 114.667 0 100.19 0 82.4167V32.25C0 14.4767 14.4767 0 32.25 0H82.4167C100.19 0 114.667 14.4767 114.667 32.25V57.3333H139.75C157.523 57.3333 172 71.81 172 89.5833V139.75C172 157.523 157.523 172 139.75 172ZM32.25 7.16667C18.4183 7.16667 7.16667 18.4183 7.16667 32.25V82.4167C7.16667 96.2483 18.4183 107.5 32.25 107.5H60.9167C62.9233 107.5 64.5 109.077 64.5 111.083V139.75C64.5 153.582 75.7517 164.833 89.5833 164.833H139.75C153.582 164.833 164.833 153.582 164.833 139.75V89.5833C164.833 75.7517 153.582 64.5 139.75 64.5H111.083C109.077 64.5 107.5 62.9233 107.5 60.9167V32.25C107.5 18.4183 96.2483 7.16667 82.4167 7.16667H32.25ZM90.4433 113.663C101.838 110.725 110.725 101.838 113.592 90.515C114.093 88.58 112.947 86.645 111.012 86.1433C109.148 85.6417 107.142 86.7883 106.64 88.7233C104.347 97.5383 97.4667 104.49 88.6517 106.712C86.7167 107.213 85.57 109.148 86.0717 111.083C86.5017 112.732 87.935 113.807 89.5117 113.807C89.7983 113.807 90.085 113.807 90.4433 113.663ZM65.2883 83.3483C67.5817 74.5333 74.4617 67.5817 83.2767 65.36C85.2117 64.8583 86.3583 62.9233 85.8567 60.9883C85.355 59.0533 83.42 57.9067 81.485 58.4083C70.09 61.3467 61.2033 70.2333 58.3367 81.5567C57.835 83.4917 58.9817 85.4267 60.9167 85.9283C61.2033 86 61.49 86.0717 61.7767 86.0717C63.3533 86.0717 64.8583 84.9967 65.2167 83.3483H65.2883Z" fill="black"/>
</g>
<defs>
<clipPath id="clip0_1_826">
<rect width="172" height="172" fill="white"/>
</clipPath>
</defs>
</svg>
