<svg width="191" height="191" viewBox="0 0 191 191" fill="none" xmlns="http://www.w3.org/2000/svg">
<g clip-path="url(#clip0_1_652)">
<path d="M146.98 160.97C154.694 160.97 160.97 154.694 160.97 146.98C160.97 139.267 154.694 132.991 146.98 132.991C139.267 132.991 132.991 139.267 132.991 146.98C132.991 154.694 139.267 160.97 146.98 160.97ZM146.98 138.587C151.608 138.587 155.374 142.352 155.374 146.98C155.374 151.609 151.608 155.374 146.98 155.374C142.352 155.374 138.587 151.609 138.587 146.98C138.587 142.352 142.352 138.587 146.98 138.587Z" fill="black"/>
<path d="M184.472 133.924H181.768C181.387 133.924 181.047 133.689 180.9 133.324C180.81 133.099 180.717 132.875 180.622 132.653C180.468 132.291 180.542 131.884 180.812 131.614L182.724 129.703C183.956 128.47 184.635 126.83 184.635 125.086C184.635 123.342 183.956 121.703 182.724 120.47L173.491 111.238C170.946 108.692 166.804 108.692 164.259 111.238L162.347 113.15C162.078 113.419 161.67 113.493 161.307 113.338C161.083 113.243 160.86 113.15 160.636 113.06C160.272 112.914 160.037 112.574 160.037 112.193V109.489C160.037 106.607 158.157 104.159 155.561 103.296V78.5226C155.561 76.9775 154.309 75.7248 152.763 75.7248C151.218 75.7248 149.965 76.9775 149.965 78.5226V102.961H140.453C136.853 102.961 133.924 105.89 133.924 109.489V112.193C133.924 112.574 133.689 112.914 133.327 113.06C133.102 113.15 132.878 113.243 132.653 113.339C132.292 113.494 131.884 113.419 131.614 113.15L129.703 111.238C127.158 108.693 123.016 108.692 120.47 111.238L116.484 115.224L83.376 104.76V63.0449H84.3086C86.88 63.0449 88.9717 60.9532 88.9717 58.3818V54.745L144.755 37.1047C145.473 38.757 147.119 39.916 149.032 39.916H149.965V65.4738C149.965 67.019 151.217 68.2717 152.763 68.2717C154.308 68.2717 155.561 67.019 155.561 65.4738V39.916H156.493C159.065 39.916 161.156 37.8243 161.156 35.2529V27.792C161.156 25.2206 159.065 23.1289 156.493 23.1289H149.032C147.138 23.1289 145.507 24.2663 144.778 25.8924L88.9717 8.12944V4.66309C88.9717 2.09167 86.88 0 84.3086 0H76.8477C74.2762 0 72.1846 2.09167 72.1846 4.66309V8.12944L51.6357 14.6701C50.1632 15.1386 49.3493 16.7121 49.8182 18.1845C50.1972 19.3746 51.2977 20.1345 52.4836 20.1345C52.7649 20.1345 53.051 20.0919 53.3326 20.002L72.5345 13.89C73.2321 15.5878 74.9015 16.7871 76.8477 16.7871H77.7803V46.2578H76.8477C74.9682 46.2578 73.3492 47.3773 72.6117 48.9829L17.5492 31.3919L40.9475 23.944C42.4199 23.4755 43.2339 21.902 42.765 20.4295C42.2964 18.9571 40.7218 18.1428 39.2505 18.6121L16.3786 25.8924C15.6493 24.2663 14.0184 23.1289 12.124 23.1289H4.66309C2.09167 23.1289 0 25.2206 0 27.792V35.2529C0 37.8243 2.09167 39.916 4.66309 39.916H5.5957V121.613H4.66309C2.09167 121.613 0 123.705 0 126.276V133.737C0 136.309 2.09167 138.4 4.66309 138.4H12.124C14.1444 138.4 15.8638 137.106 16.5099 135.306L36.6918 141.729C37.8087 142.056 39.424 141.689 40.2062 139.912C40.6752 138.44 39.8612 136.866 38.3888 136.398L17.6321 129.79L77.7803 110.637V144.369H76.8477C74.9015 144.369 73.2321 145.568 72.5341 147.266L50.8366 140.36C49.3664 139.891 47.791 140.705 47.3221 142.177C46.8532 143.65 47.6672 145.224 49.1396 145.692L72.1842 153.027V156.493C72.1842 159.065 74.2759 161.156 76.8473 161.156H84.3082C86.8796 161.156 88.9713 159.065 88.9713 156.493V153.027L102.961 148.575V153.509C102.961 157.108 105.889 160.037 109.489 160.037H112.192C112.573 160.037 112.913 160.272 113.06 160.637C113.151 160.862 113.244 161.086 113.338 161.308C113.492 161.67 113.418 162.077 113.148 162.347L111.237 164.258C110.004 165.491 109.325 167.131 109.325 168.875C109.325 170.619 110.004 172.258 111.237 173.491L120.47 182.723C123.014 185.268 127.156 185.269 129.702 182.723L131.614 180.811C131.883 180.542 132.291 180.468 132.654 180.623C132.877 180.718 133.101 180.811 133.325 180.9C133.688 181.047 133.923 181.387 133.923 181.768V184.472C133.923 188.071 136.852 191 140.451 191H153.508C157.108 191 160.036 188.071 160.036 184.472V181.768C160.036 181.387 160.271 181.047 160.633 180.901C160.859 180.811 161.083 180.718 161.308 180.622C161.669 180.468 162.077 180.542 162.346 180.811L164.258 182.723C166.803 185.268 170.944 185.269 173.49 182.723L182.722 173.49C183.956 172.257 184.635 170.618 184.635 168.874C184.635 167.13 183.956 165.491 182.723 164.257L180.811 162.346C180.542 162.076 180.467 161.668 180.621 161.307C180.716 161.084 180.809 160.86 180.9 160.634C181.047 160.271 181.387 160.036 181.767 160.036H184.471C188.07 160.036 190.999 157.107 190.999 153.508V140.451C191 136.853 188.071 133.924 184.472 133.924ZM149.965 28.7246H155.561V34.3203H149.965V28.7246ZM77.7803 5.5957H83.376V11.1914H77.7803V5.5957ZM83.376 16.7871H84.3086C86.2548 16.7871 87.9242 15.5878 88.6221 13.89L143.933 31.4956L88.5565 49.0075C87.8242 47.3889 86.1977 46.2578 84.3086 46.2578H83.376V16.7871ZM77.7803 51.8535H83.376V57.4492H77.7803V51.8535ZM5.5957 28.7246H11.1914V34.3203H5.5957V28.7246ZM11.1914 132.805H5.5957V127.209H11.1914V132.805ZM16.3536 124.325C15.6131 122.727 13.9982 121.613 12.124 121.613H11.1914V39.916H12.124C14.1064 39.916 15.7993 38.6704 16.473 36.9223L72.1846 54.7204V58.3815C72.1846 60.9529 74.2762 63.0445 76.8477 63.0445H77.7803V104.764L16.3536 124.325ZM83.376 155.561H77.7803V149.965H83.376V155.561ZM88.6221 147.266C87.9245 145.568 86.2548 144.369 84.3086 144.369H83.376V110.628L112.024 119.684L111.238 120.47C110.004 121.703 109.325 123.343 109.325 125.087C109.325 126.831 110.004 128.47 111.237 129.703L113.149 131.615C113.419 131.884 113.493 132.292 113.339 132.653C113.244 132.876 113.151 133.1 113.06 133.326C112.913 133.69 112.573 133.925 112.193 133.925H109.489C105.89 133.925 102.961 136.853 102.961 140.453V142.703L88.6221 147.266ZM185.404 153.509C185.404 154.023 184.986 154.441 184.472 154.441H181.768C179.092 154.441 176.714 156.052 175.711 158.545C175.634 158.735 175.555 158.925 175.475 159.114C174.42 161.589 174.962 164.411 176.855 166.304L178.766 168.215C179.004 168.453 179.039 168.73 179.039 168.875C179.039 169.019 179.004 169.296 178.766 169.534L169.534 178.767C169.17 179.13 168.578 179.13 168.215 178.767L166.304 176.855C164.41 174.962 161.589 174.42 159.115 175.475C158.927 175.555 158.737 175.633 158.545 175.711C156.052 176.715 154.441 179.092 154.441 181.769V184.472C154.441 184.986 154.023 185.405 153.509 185.405H140.452C139.938 185.405 139.52 184.986 139.52 184.472V181.769C139.52 179.093 137.909 176.715 135.414 175.71C135.223 175.633 135.034 175.555 134.847 175.475C134.008 175.118 133.129 174.943 132.259 174.943C130.565 174.943 128.908 175.604 127.657 176.855L125.745 178.767C125.381 179.131 124.789 179.13 124.427 178.767L115.194 169.534C114.956 169.297 114.921 169.019 114.921 168.875C114.921 168.731 114.957 168.453 115.194 168.215L117.105 166.304C118.999 164.411 119.541 161.589 118.486 159.113C118.405 158.925 118.327 158.735 118.25 158.546C117.246 156.053 114.869 154.442 112.192 154.442H109.489C108.975 154.442 108.557 154.023 108.557 153.509V140.453C108.557 139.938 108.975 139.52 109.489 139.52H112.193C114.869 139.52 117.247 137.909 118.25 135.417C118.327 135.226 118.405 135.037 118.486 134.847C119.541 132.373 118.999 129.55 117.106 127.658L115.195 125.746C114.957 125.509 114.922 125.231 114.922 125.087C114.922 124.942 114.957 124.665 115.195 124.427L124.427 115.195C124.791 114.831 125.383 114.831 125.746 115.195L127.657 117.106C129.551 118.999 132.372 119.541 134.846 118.487C135.034 118.407 135.224 118.328 135.416 118.251C137.909 117.247 139.52 114.869 139.52 112.192V109.489C139.52 108.975 139.938 108.557 140.452 108.557H153.509C154.023 108.557 154.441 108.975 154.441 109.489V112.193C154.441 114.869 156.052 117.247 158.547 118.252C158.738 118.328 158.927 118.407 159.114 118.486C161.589 119.541 164.411 118.999 166.303 117.107L168.215 115.195C168.579 114.831 169.17 114.831 169.534 115.195L178.767 124.428C179.004 124.665 179.039 124.942 179.039 125.087C179.039 125.231 179.004 125.509 178.766 125.746L176.855 127.658C174.962 129.551 174.42 132.373 175.475 134.848C175.555 135.037 175.634 135.227 175.71 135.416C176.714 137.909 179.092 139.52 181.768 139.52H184.472C184.986 139.52 185.404 139.938 185.404 140.453V153.509Z" fill="black"/>
<path d="M146.98 121.8C133.096 121.8 121.8 133.096 121.8 146.98C121.8 150.977 122.76 154.955 124.577 158.487C125.284 159.861 126.972 160.402 128.345 159.695C129.719 158.988 130.26 157.301 129.553 155.927C128.121 153.145 127.396 150.135 127.396 146.981C127.396 136.182 136.182 127.396 146.98 127.396C157.779 127.396 166.565 136.182 166.565 146.981C166.565 157.78 157.779 166.566 146.98 166.566C143.602 166.566 140.273 165.692 137.353 164.041C136.008 163.28 134.301 163.753 133.54 165.098C132.779 166.443 133.252 168.15 134.598 168.911C138.356 171.038 142.639 172.162 146.98 172.162C160.865 172.162 172.161 160.866 172.161 146.981C172.161 133.096 160.865 121.8 146.98 121.8Z" fill="black"/>
</g>
<defs>
<clipPath id="clip0_1_652">
<rect width="191" height="191" fill="white"/>
</clipPath>
</defs>
</svg>
