<svg width="180" height="180" viewBox="0 0 180 180" fill="none" xmlns="http://www.w3.org/2000/svg">
<g clip-path="url(#clip0_1_666)">
<path d="M100.289 133.517H94.909C92.933 133.517 91.3257 135.125 91.3257 137.101V153.311C91.3257 155.287 92.933 156.895 94.909 156.895H100.289C105.237 156.895 109.262 152.872 109.262 147.927V142.484C109.262 137.54 105.237 133.517 100.289 133.517ZM103.949 147.928C103.949 149.942 102.307 151.582 100.289 151.582H96.639V138.831H100.289C102.307 138.831 103.949 140.47 103.949 142.485V147.928Z" fill="black"/>
<path d="M82.2855 133.517H73.3983C71.9309 133.517 70.7415 134.706 70.7415 136.174C70.7415 137.641 71.9309 138.83 73.3983 138.83H81.6609V142.549H73.3983C71.9309 142.549 70.7415 143.738 70.7415 145.206C70.7415 146.673 71.9309 147.863 73.3983 147.863H81.6609V151.581H73.3983C71.9309 151.581 70.7415 152.771 70.7415 154.238C70.7415 155.706 71.9309 156.895 73.3983 156.895H82.2855C84.871 156.895 86.9749 154.791 86.9749 152.204V138.207C86.9746 135.621 84.871 133.517 82.2855 133.517Z" fill="black"/>
<path d="M179.84 151.118L175.367 135.416C174.964 134.005 173.495 133.186 172.083 133.589C170.672 133.991 169.854 135.461 170.256 136.872L173.412 147.946L141.675 130.267C141.686 129.882 141.683 110.104 141.683 110.104C141.683 108.636 140.493 107.447 139.026 107.447C137.558 107.447 136.369 108.636 136.369 110.104C136.369 110.104 136.379 130.421 136.34 130.755C136.234 130.833 123.311 138.049 123.311 138.049C120.196 123.518 107.798 112.393 92.6537 111.218V103.988L136.369 79.6445V97.9208C136.369 99.3883 137.558 100.578 139.026 100.578C140.493 100.578 141.683 99.3883 141.683 97.9208V74.5822C141.643 73.2539 140.946 72.1643 139.591 71.3138L92.654 45.1759V9.10902L100.791 17.2514C101.31 17.7706 101.99 18.0303 102.67 18.0303C103.35 18.0303 104.029 17.7709 104.548 17.2528C105.586 16.2156 105.587 14.5334 104.55 13.4955L93.0238 1.96201C92.2389 1.16169 91.1377 0.703003 89.9972 0.703003C88.8563 0.703003 87.7853 1.14622 86.9822 1.95041L75.4448 13.4951C74.4076 14.5331 74.4079 16.2153 75.4458 17.2525C76.4841 18.29 78.166 18.2893 79.2032 17.2514L87.3403 9.10902V45.1755L69.0774 55.3425C67.7955 56.056 67.3347 57.6742 68.0482 58.956C68.7621 60.2382 70.3803 60.6987 71.6618 59.9852L89.9972 49.7782L134.539 74.5818L89.9975 99.3855L45.4565 74.5772L62.3637 65.0954C63.6435 64.3776 64.0993 62.7584 63.3813 61.4786C62.6635 60.1985 61.0446 59.743 59.7645 60.4607L40.4124 71.3138C39.0795 72.0561 38.3172 73.2511 38.32 74.5917C38.32 74.5973 38.321 74.6026 38.321 74.6078C38.321 74.6078 38.3168 129.89 38.3277 130.267L6.59076 147.942L9.73827 136.87C10.1397 135.459 9.32071 133.989 7.90917 133.588C6.49832 133.187 5.02843 134.006 4.62704 135.417L0.159717 151.133C-0.144314 152.224 -0.0107514 153.367 0.535801 154.352C1.08622 155.343 2.02467 156.086 3.09634 156.385L18.7886 160.861C19.0321 160.93 19.2775 160.964 19.5189 160.964C20.6757 160.964 21.7396 160.202 22.0724 159.035C22.4749 157.624 21.6573 156.153 20.2465 155.751L9.16641 152.591L40.6043 135.082C40.9417 135.329 55.9601 143.728 55.9601 143.728C55.939 144.218 55.9267 144.711 55.9267 145.206C55.9267 164.004 71.2109 179.297 89.9979 179.297C108.785 179.297 124.069 164.004 124.069 145.206C124.069 144.711 124.056 144.218 124.035 143.728C124.035 143.728 139.065 135.328 139.4 135.082L170.833 152.592L159.759 155.751C158.348 156.154 157.53 157.624 157.933 159.035C158.266 160.203 159.33 160.964 160.487 160.964C160.728 160.964 160.973 160.931 161.217 160.861L176.91 156.385C177.983 156.078 178.912 155.338 179.46 154.351C180.009 153.359 180.146 152.216 179.84 151.118ZM44.3563 131.183C43.9722 130.968 43.7683 130.834 43.6618 130.756C43.6238 130.424 43.6347 79.6452 43.6347 79.6452L87.3403 103.988V111.218C72.1968 112.393 59.799 123.517 56.6835 138.048L44.3563 131.183ZM89.9972 173.983C74.1405 173.983 61.24 161.074 61.24 145.206C61.24 129.338 74.1405 116.429 89.9972 116.429C105.854 116.429 118.755 129.338 118.755 145.206C118.755 161.074 105.854 173.983 89.9972 173.983Z" fill="black"/>
</g>
<defs>
<clipPath id="clip0_1_666">
<rect width="180" height="180" fill="white"/>
</clipPath>
</defs>
</svg>
