<svg width="180" height="180" viewBox="0 0 180 180" fill="none" xmlns="http://www.w3.org/2000/svg">
<g clip-path="url(#clip0_1_599)">
<path d="M137.451 154.697C135.663 155.671 133.85 156.676 132.014 157.694C116.479 166.307 98.8706 176.07 81.9475 174.559L22.0159 169.209C21.9379 169.202 21.8595 169.198 21.7811 169.198H5.28363V139.539H21.7807C22.4054 139.539 23.0101 139.318 23.4868 138.915C23.5336 138.875 28.2547 134.909 35.4421 131.175C36.7369 130.502 37.241 128.907 36.5688 127.613C35.8959 126.318 34.3016 125.813 33.0065 126.486C26.9462 129.634 22.5499 132.913 20.8463 134.256H2.64199C1.18301 134.256 0 135.439 0 136.898V171.84C0 173.299 1.18266 174.482 2.64199 174.482H21.6629L81.4774 179.822C82.8285 179.943 84.1764 180 85.5246 180C102.678 180 119.557 170.642 134.576 162.316C136.4 161.304 138.202 160.305 139.979 159.337C141.26 158.638 141.733 157.034 141.035 155.753C140.337 154.471 138.733 153.998 137.451 154.697Z" fill="black"/>
<path d="M177.961 125.433C175.152 121.71 170.258 120.424 166.034 122.192C165.926 120.502 165.354 118.856 164.352 117.454C161.71 113.755 156.688 112.564 152.67 114.682L146.387 117.993C146.306 116.518 145.871 115.066 145.095 113.784C142.589 109.64 137.292 108.201 133.036 110.507L128.34 113.053C128.255 111.228 127.637 109.448 126.533 107.946C123.779 104.199 118.793 103.046 114.678 105.205L80.7737 122.987C76.961 121.523 64.8068 117.564 50.6061 120.208C48.1564 120.664 45.6326 121.324 43.1041 122.169C41.7204 122.632 40.9736 124.128 41.4359 125.512C41.899 126.896 43.3963 127.642 44.7793 127.18C47.0771 126.412 49.3626 125.814 51.5729 125.402C66.7323 122.58 79.7053 128.25 79.8308 128.306C80.1715 128.459 80.5402 128.538 80.9136 128.538H116.203C118.711 128.538 120.751 130.584 120.751 133.098C120.751 135.39 119.041 137.335 116.773 137.622L72.0458 143.287C70.7225 143.455 69.7318 144.583 69.736 145.916C69.7399 147.25 70.7376 148.371 72.0616 148.531L91.0576 150.821C109.459 153.038 127.75 149.449 143.955 140.44L167.693 127.245C169.781 126.156 172.321 126.731 173.742 128.615C175.518 130.856 174.746 134.449 172.203 135.758L146.734 149.638C143.689 151.238 146.299 155.965 149.262 154.278L174.732 140.398C177.313 138.992 179.15 136.536 179.771 133.66C180.393 130.781 179.733 127.783 177.961 125.433ZM117.132 109.884C118.917 108.947 121.08 109.448 122.276 111.075C123.744 112.969 123.078 115.974 120.942 117.064L109.523 123.255H91.6391L117.132 109.884ZM119.535 123.837L135.554 115.152C137.326 114.192 139.53 114.793 140.574 116.519C141.712 118.306 141 120.887 139.104 121.832L125.209 129.155C124.13 126.694 122.075 124.756 119.535 123.837ZM141.388 135.822C126.856 143.901 110.539 147.341 94.0529 145.826L117.437 142.864C121.776 142.315 125.168 138.961 125.89 134.768L155.133 119.356C156.824 118.465 158.939 118.967 160.052 120.524C161.4 122.315 160.774 125.109 158.788 126.149L141.388 135.822Z" fill="black"/>
<path d="M61.5203 71.7834C64.504 71.7834 67.3746 71.138 70.0513 69.865C71.369 69.2385 71.9294 67.6621 71.3026 66.3444C70.6761 65.0271 69.1007 64.4664 67.782 65.0932C65.8199 66.0263 63.713 66.4995 61.5203 66.4995C53.4692 66.4995 46.9189 59.9491 46.9189 51.898C46.9189 43.8469 53.4692 37.2969 61.5203 37.2969C69.5715 37.2969 76.1218 43.8469 76.1218 51.898C76.1218 54.3632 75.4967 56.7984 74.3144 58.9409C73.6095 60.2184 74.0732 61.8254 75.3508 62.5303C76.6287 63.2352 78.2357 62.7711 78.9403 61.4939C80.5529 58.5717 81.4054 55.2537 81.4054 51.8977C81.4054 40.9328 72.4849 32.0126 61.5203 32.0126C50.5558 32.0126 41.6353 40.9328 41.6353 51.8977C41.6353 62.8625 50.5558 71.7834 61.5203 71.7834Z" fill="black"/>
<path d="M20.2665 59.753L25.7421 60.576C26.6361 64.2853 28.0919 67.7988 30.0867 71.0592L26.795 75.5153C25.2397 77.6211 25.4545 80.4927 27.3058 82.3433L31.0753 86.1131C32.9263 87.9641 35.7982 88.1789 37.9037 86.6236L42.3594 83.3323C45.6198 85.327 49.1329 86.7832 52.8426 87.6772L53.666 93.1528C54.0552 95.7414 56.2377 97.6201 58.855 97.6201H64.1858C66.8035 97.6201 68.986 95.7414 69.3748 93.1525L70.1979 87.6772C73.9075 86.7832 77.4207 85.327 80.6811 83.3323L85.1371 86.6239C87.2427 88.1789 90.1146 87.9645 91.9652 86.1135L95.7347 82.344C97.586 80.4934 97.8008 77.6215 96.2455 75.5156L92.9541 71.0599C94.9489 67.7995 96.4051 64.2864 97.2987 60.5767L102.774 59.7537C105.363 59.3645 107.242 57.1823 107.242 54.5643V54.5403H122.92V88.2137C122.92 91.6109 125.684 94.3748 129.081 94.3748H140.368C141.576 99.7601 146.392 103.797 152.137 103.797C158.789 103.797 164.201 98.3851 164.201 91.7325C164.201 85.0802 158.789 79.6679 152.137 79.6679C146.392 79.6679 141.576 83.7053 140.367 89.0909H129.081C128.597 89.0909 128.204 88.6975 128.204 88.2137V54.5403H140.367C141.576 59.9259 146.392 63.9633 152.137 63.9633C158.789 63.9633 164.201 58.5513 164.201 51.8987C164.201 45.2461 158.789 39.8341 152.137 39.8341C146.392 39.8341 141.576 43.8711 140.367 49.2564H128.204V15.5837C128.204 15.1 128.598 14.7066 129.081 14.7066H140.368C141.576 20.0921 146.393 24.1291 152.138 24.1291C158.79 24.1291 164.202 18.7172 164.202 12.0646C164.202 5.41195 158.789 0 152.137 0C146.393 0 141.576 4.03699 140.368 9.42258H129.081C125.684 9.42258 122.92 12.1862 122.92 15.5834V49.256H107.242V49.2328C107.242 46.6154 105.363 44.4329 102.774 44.0438L97.2987 43.2207C96.4047 39.5111 94.9489 35.9979 92.9541 32.7375L96.2455 28.2818C97.8008 26.1759 97.5863 23.304 95.735 21.4534L91.9656 17.6836C90.1149 15.8326 87.243 15.6182 85.1371 17.1731L80.6814 20.4645C77.4207 18.4697 73.9075 17.0135 70.1982 16.1198L69.3752 10.6443C68.9864 8.0557 66.8039 6.1766 64.1861 6.1766H58.855C56.2377 6.1766 54.0552 8.05535 53.666 10.6443L52.8426 16.1198C49.1333 17.0139 45.6201 18.4697 42.3594 20.4645L37.9037 17.1731C35.7985 15.6178 32.9263 15.8323 31.0753 17.6836L27.3058 21.4527C25.4545 23.3037 25.2397 26.1756 26.795 28.2811L30.0863 32.7368C28.0916 35.9972 26.6354 39.5107 25.7417 43.22L20.2661 44.043C17.6776 44.4322 15.7988 46.6147 15.7988 49.2321V54.5629C15.7988 57.1816 17.6779 59.3638 20.2665 59.753ZM152.137 84.9512C155.876 84.9512 158.918 87.9929 158.918 91.7318C158.918 95.4707 155.876 98.5124 152.137 98.5124C148.398 98.5124 145.357 95.4707 145.357 91.7318C145.357 87.9929 148.398 84.9512 152.137 84.9512ZM152.137 45.1174C155.876 45.1174 158.918 48.1591 158.918 51.898C158.918 55.6369 155.876 58.6786 152.137 58.6786C148.398 58.6786 145.357 55.6369 145.357 51.898C145.357 48.1591 148.398 45.1174 152.137 45.1174ZM152.137 5.28363C155.876 5.28363 158.918 8.32535 158.918 12.0642C158.918 15.8031 155.876 18.8448 152.137 18.8448C148.398 18.8448 145.357 15.8031 145.357 12.0642C145.357 8.3257 148.398 5.28363 152.137 5.28363ZM21.0825 49.2638L28.3341 48.1736C29.4465 48.0066 30.331 47.1533 30.5381 46.048C31.3432 41.7544 33.0054 37.7441 35.4775 34.1283C36.1121 33.2002 36.09 31.9718 35.4216 31.0672L31.0637 25.167L34.7892 21.4418L40.6895 25.8001C41.5937 26.4681 42.8217 26.4906 43.7502 25.856C47.3663 23.3835 51.3766 21.7216 55.6699 20.9162C56.7752 20.7091 57.6281 19.8246 57.7954 18.7123L58.8856 11.4606H64.1541L65.2443 18.7123C65.4117 19.8246 66.2646 20.7091 67.3699 20.9162C71.6632 21.7213 75.6738 23.3835 79.2896 25.856C80.2181 26.4909 81.4461 26.4681 82.3507 25.8001L88.2509 21.4418L91.9764 25.167L87.6185 31.0676C86.9505 31.9718 86.928 33.2002 87.5626 34.1286C90.0351 37.7445 91.697 41.7547 92.5024 46.0487C92.7098 47.154 93.5943 48.0069 94.7063 48.1743L101.958 49.2645V54.533L94.7063 55.6232C93.5943 55.7902 92.7098 56.6434 92.5024 57.7487C91.697 62.0427 90.0351 66.053 87.5626 69.6688C86.928 70.5969 86.9502 71.8253 87.6185 72.7295L91.9768 78.6298L88.2513 82.3553L82.351 77.997C81.4468 77.329 80.2184 77.3065 79.29 77.9414C75.6741 80.4139 71.6639 82.0758 67.3699 82.8812C66.2646 83.0886 65.4117 83.9732 65.2443 85.0852L64.1541 92.3368H58.8856L57.7954 85.0852C57.6281 83.9732 56.7752 83.0886 55.6699 82.8812C51.3759 82.0758 47.3656 80.4139 43.7498 77.9414C42.8217 77.3068 41.5937 77.329 40.6891 77.997L34.7888 82.3553L31.0633 78.6298L35.4216 72.7295C36.0896 71.8253 36.1121 70.5966 35.4775 69.6688C33.005 66.053 31.3432 62.0427 30.5381 57.7491C30.3307 56.6438 29.4465 55.7905 28.3341 55.6235L21.0825 54.5333V49.2638Z" fill="black"/>
</g>
<defs>
<clipPath id="clip0_1_599">
<rect width="180" height="180" fill="white"/>
</clipPath>
</defs>
</svg>
