<svg width="213" height="213" viewBox="0 0 213 213" fill="none" xmlns="http://www.w3.org/2000/svg">
<path d="M63.9333 46.4606L52.6843 57.7097L49.223 54.2485C47.925 52.9505 45.8283 52.9505 44.5304 54.2485C43.2324 55.5464 43.2324 57.6431 44.5304 58.9411L50.3546 64.7653C51.0202 65.431 51.8522 65.7305 52.7175 65.7305C53.5829 65.7305 54.4149 65.3977 55.0805 64.7653L68.6593 51.1866C69.9572 49.8886 69.9572 47.7919 68.6593 46.4939C67.3613 45.196 65.2646 45.196 63.9666 46.4939L63.9333 46.4606Z" fill="black"/>
<path d="M56.5781 29.9531C41.9011 29.9531 29.9531 41.9011 29.9531 56.5781C29.9531 71.2552 41.9011 83.2031 56.5781 83.2031C71.2552 83.2031 83.2031 71.2552 83.2031 56.5781C83.2031 41.9011 71.2552 29.9531 56.5781 29.9531ZM56.5781 76.5469C45.562 76.5469 36.6094 67.5942 36.6094 56.5781C36.6094 45.562 45.562 36.6094 56.5781 36.6094C67.5942 36.6094 76.5469 45.562 76.5469 56.5781C76.5469 67.5942 67.5942 76.5469 56.5781 76.5469Z" fill="black"/>
<path d="M99.2113 79.8417L93.8198 74.4502C94.4854 73.0856 95.0512 71.6878 95.5504 70.2567H103.172C105.002 70.2567 106.5 68.7591 106.5 66.9286V46.2277C106.5 44.3972 105.002 42.8995 103.172 42.8995H95.5504C95.0512 41.4684 94.4854 40.0706 93.8198 38.7061L99.2113 33.3145C99.8437 32.6822 100.176 31.8502 100.176 30.9516C100.176 30.053 99.8104 29.2209 99.2113 28.5886L84.5676 13.9448C83.3029 12.6802 81.1063 12.6802 79.8749 13.9448L74.4834 19.3364C73.1188 18.6708 71.721 18.105 70.2899 17.6058V9.98438C70.2899 8.15391 68.7923 6.65625 66.9618 6.65625H46.2609C44.4304 6.65625 42.9327 8.15391 42.9327 9.98438V17.6058C41.5016 18.105 40.1038 18.6708 38.7393 19.3364L33.3477 13.9448C32.7154 13.3125 31.8834 12.9797 30.9848 12.9797C30.0862 12.9797 29.2541 13.3458 28.6218 13.9448L13.978 28.5886C13.3457 29.2209 13.0129 30.053 13.0129 30.9516C13.0129 31.8502 13.379 32.6822 13.978 33.3145L19.3696 38.7061C18.704 40.0706 18.1382 41.4684 17.639 42.8995H10.0176C8.18711 42.8995 6.68945 44.3972 6.68945 46.2277V66.9286C6.68945 68.7591 8.18711 70.2567 10.0176 70.2567H17.639C18.1382 71.6878 18.704 73.0856 19.3696 74.4502L13.978 79.8417C13.3457 80.4741 13.0129 81.3061 13.0129 82.2047C13.0129 83.1033 13.379 83.9353 13.978 84.5677L28.6218 99.2114C29.8865 100.476 32.083 100.476 33.3145 99.2114L38.706 93.8198C40.0705 94.4855 41.4684 95.0512 42.8995 95.5505V103.172C42.8995 105.002 44.3971 106.5 46.2276 106.5H66.9285C68.759 106.5 70.2566 105.002 70.2566 103.172V95.5505C71.6877 95.0512 73.0855 94.4855 74.4501 93.8198L79.8416 99.2114C80.474 99.8438 81.306 100.177 82.2046 100.177C83.1032 100.177 83.9352 99.8105 84.5676 99.2114L99.2113 84.5677C99.8437 83.9353 100.176 83.1033 100.176 82.2047C100.176 81.3061 99.8104 80.4741 99.2113 79.8417ZM87.3965 77.4455L92.1557 82.2047L82.2046 92.1558L77.4454 87.3966C76.3804 86.3316 74.7829 86.1319 73.4516 86.8308C71.1219 88.1288 68.5926 89.1937 66.0299 89.9259C64.5988 90.3253 63.6004 91.6233 63.6004 93.1209V99.877H49.5557V93.1209C49.5557 91.6233 48.5573 90.3253 47.1262 89.9259C44.5302 89.1937 42.0341 88.162 39.7045 86.8308C38.4065 86.0986 36.7757 86.3316 35.7107 87.3966L30.9515 92.1558L21.0004 82.2047L25.7596 77.4455C26.8246 76.3805 27.0243 74.783 26.3254 73.4517C25.0274 71.122 23.9624 68.5927 23.2302 66.03C22.8309 64.5989 21.5329 63.6005 20.0352 63.6005H13.2791V49.5558H20.0352C21.5329 49.5558 22.8309 48.5573 23.2302 47.1263C23.9624 44.5303 24.9941 42.0342 26.3254 39.7045C27.0576 38.4066 26.8246 36.7758 25.7596 35.7108L21.0004 30.9516L30.9515 21.0005L35.7107 25.7597C36.7757 26.8247 38.3732 27.0244 39.7045 26.3255C42.0341 25.0275 44.5635 23.9625 47.1262 23.2303C48.5573 22.8309 49.5557 21.533 49.5557 20.0353V13.2792H63.6004V20.0353C63.6004 21.533 64.5988 22.8309 66.0299 23.2303C68.6259 23.9625 71.1219 24.9942 73.4516 26.3255C74.7496 27.0577 76.3804 26.8247 77.4454 25.7597L82.2046 21.0005L92.1557 30.9516L87.3965 35.7108C86.3315 36.7758 86.1318 38.3733 86.8307 39.7045C88.1287 42.0342 89.1937 44.5636 89.9259 47.1263C90.3252 48.5573 91.6232 49.5558 93.1208 49.5558H99.8769V63.6005H93.1208C91.6232 63.6005 90.3252 64.5989 89.9259 66.03C89.1937 68.6259 88.1619 71.122 86.8307 73.4517C86.0985 74.7497 86.3315 76.3805 87.3965 77.4455Z" fill="black"/>
<path d="M150.431 186.375H106.5V103.172H179.719V149.766C179.719 151.596 181.216 153.094 183.047 153.094C184.877 153.094 186.375 151.596 186.375 149.766V99.8438C186.375 98.0133 184.877 96.5156 183.047 96.5156H103.172C101.341 96.5156 99.8438 98.0133 99.8438 99.8438V189.703C99.8438 191.534 101.341 193.031 103.172 193.031H150.431C152.262 193.031 153.759 191.534 153.759 189.703C153.759 187.873 152.262 186.375 150.431 186.375Z" fill="black"/>
<path d="M183.047 159.75C170.2 159.75 159.75 170.2 159.75 183.047C159.75 195.893 170.2 206.344 183.047 206.344C195.893 206.344 206.344 195.893 206.344 183.047C206.344 170.2 195.893 159.75 183.047 159.75ZM183.047 199.688C173.861 199.688 166.406 192.232 166.406 183.047C166.406 173.861 173.861 166.406 183.047 166.406C192.232 166.406 199.688 173.861 199.688 183.047C199.688 192.232 192.232 199.688 183.047 199.688Z" fill="black"/>
<path d="M193.963 174.993C192.665 173.695 190.568 173.695 189.27 174.993L180.218 184.045L176.857 180.684C175.559 179.386 173.462 179.386 172.164 180.684C170.866 181.982 170.866 184.079 172.164 185.377L177.855 191.068C178.521 191.733 179.353 192.033 180.218 192.033C181.083 192.033 181.915 191.7 182.581 191.068L193.996 179.652C195.294 178.354 195.294 176.258 193.996 174.96L193.963 174.993Z" fill="black"/>
<path d="M166.406 116.484H119.812C117.982 116.484 116.484 117.982 116.484 119.812C116.484 121.643 117.982 123.141 119.812 123.141H166.406C168.237 123.141 169.734 121.643 169.734 119.812C169.734 117.982 168.237 116.484 166.406 116.484Z" fill="black"/>
<path d="M166.406 133.125H119.812C117.982 133.125 116.484 134.623 116.484 136.453C116.484 138.284 117.982 139.781 119.812 139.781H166.406C168.237 139.781 169.734 138.284 169.734 136.453C169.734 134.623 168.237 133.125 166.406 133.125Z" fill="black"/>
<path d="M169.734 153.094C169.734 151.263 168.237 149.766 166.406 149.766H119.812C117.982 149.766 116.484 151.263 116.484 153.094C116.484 154.924 117.982 156.422 119.812 156.422H166.406C168.237 156.422 169.734 154.924 169.734 153.094Z" fill="black"/>
<path d="M119.812 166.406C117.982 166.406 116.484 167.904 116.484 169.734C116.484 171.565 117.982 173.062 119.812 173.062H146.438C148.268 173.062 149.766 171.565 149.766 169.734C149.766 167.904 148.268 166.406 146.438 166.406H119.812Z" fill="black"/>
<path d="M119.812 39.9375H173.062V83.2031C173.062 85.0336 174.56 86.5312 176.391 86.5312C178.221 86.5312 179.719 85.0336 179.719 83.2031V36.6094C179.719 34.7789 178.221 33.2812 176.391 33.2812H119.812C117.982 33.2812 116.484 34.7789 116.484 36.6094C116.484 38.4398 117.982 39.9375 119.812 39.9375Z" fill="black"/>
<path d="M83.2031 173.062H39.9375V119.812C39.9375 117.982 38.4398 116.484 36.6094 116.484C34.7789 116.484 33.2812 117.982 33.2812 119.812V176.391C33.2812 178.221 34.7789 179.719 36.6094 179.719H83.2031C85.0336 179.719 86.5312 178.221 86.5312 176.391C86.5312 174.56 85.0336 173.062 83.2031 173.062Z" fill="black"/>
</svg>
