<svg width="170" height="170" viewBox="0 0 170 170" fill="none" xmlns="http://www.w3.org/2000/svg">
<g clip-path="url(#clip0_1_822)">
<path d="M85 35.4167C57.6654 35.4167 35.4167 57.6654 35.4167 85C35.4167 112.335 57.6654 134.583 85 134.583C112.335 134.583 134.583 112.335 134.583 85C134.583 57.6654 112.335 35.4167 85 35.4167ZM85 127.5C61.5613 127.5 42.5 108.439 42.5 85C42.5 61.5613 61.5613 42.5 85 42.5C108.439 42.5 127.5 61.5613 127.5 85C127.5 108.439 108.439 127.5 85 127.5ZM160.523 66.7321C160.409 66.4842 160.282 66.1229 160.147 65.62C158.348 58.7279 155.699 52.2608 152.292 46.3958C151.775 45.5033 151.491 44.8729 151.343 44.4692C154.58 40.1838 154.24 34.0354 150.337 30.1396L139.86 19.6633C135.922 15.7179 129.696 15.4204 125.439 18.7213C125.106 18.5867 124.617 18.3458 123.937 17.9138C118.66 14.4996 112.264 11.8646 104.38 9.86C103.87 9.72542 103.502 9.605 103.247 9.49875C102.531 4.14375 97.9413 0 92.4021 0H77.5838C72.0658 0 67.49 4.10833 66.7463 9.49167C66.4913 9.59792 66.1229 9.72542 65.6058 9.86C57.7292 11.8575 51.3258 14.4925 46.0488 17.9138C45.3688 18.3529 44.8729 18.6008 44.54 18.7283C40.2617 15.4133 34.0567 15.725 30.1254 19.6633L19.6492 30.1396C15.7533 34.0354 15.4133 40.1625 18.6433 44.4621C18.4946 44.8729 18.2183 45.4963 17.6942 46.3958C14.2871 52.2608 11.6379 58.7279 9.83167 65.6271C9.69709 66.1371 9.56959 66.5054 9.45626 66.7463C4.11542 67.4758 -0.0141602 72.0588 -0.0141602 77.5908V92.4092C-0.0141602 98.1113 4.37042 102.808 9.42792 103.261C9.55542 103.53 9.71126 103.941 9.87417 104.529C11.8433 111.584 14.5067 118.051 17.7863 123.746C18.2538 124.568 18.5158 125.148 18.6433 125.531C15.3992 129.816 15.7321 135.965 19.6421 139.868L30.1183 150.344C34.1629 154.388 40.6229 154.601 44.6392 151.215C44.8871 151.328 45.2483 151.527 45.73 151.895C50.7733 155.663 57.12 158.298 65.7263 160.183C66.1796 160.289 66.4983 160.388 66.725 160.48C67.4333 165.849 72.0233 170.007 77.5767 170.007H92.395C98.1042 170.007 102.8 165.615 103.261 160.473C103.48 160.381 103.799 160.282 104.245 160.183C112.852 158.298 119.198 155.663 124.242 151.888C124.73 151.52 125.099 151.321 125.347 151.208C129.646 154.594 135.901 154.31 139.853 150.344L150.33 139.868C154.282 135.915 154.58 129.682 151.335 125.51C151.47 125.127 151.725 124.553 152.185 123.753C155.465 118.051 158.128 111.584 160.098 104.529C160.26 103.934 160.43 103.516 160.551 103.247C165.878 102.51 169.986 97.9271 169.986 92.4092V77.5908C169.986 71.9029 165.623 67.2138 160.508 66.7321H160.523ZM162.917 92.4092C162.917 94.5413 161.181 96.2696 158.433 96.3263C157.101 96.56 154.665 97.6863 153.283 102.623C151.47 109.112 149.033 115.033 146.051 120.218C143.168 125.233 143.99 127.897 145.329 129.398C146.838 130.907 146.838 133.358 145.329 134.86L134.853 145.336C133.344 146.838 130.893 146.845 129.058 145.038C128.442 144.557 125.12 142.382 120.006 146.221C115.805 149.366 110.323 151.605 102.744 153.262C97.3179 154.445 96.4396 157.59 96.2625 159.049C96.2625 161.181 94.5342 162.917 92.4021 162.917H77.5838C75.4517 162.917 73.7233 161.181 73.6808 158.525C73.5392 157.59 72.6608 154.445 67.2421 153.262C59.67 151.605 54.1804 149.366 49.98 146.228C47.7488 144.55 45.8575 144.018 44.3558 144.018C42.415 144.018 41.1258 144.897 40.5946 145.336C39.0858 146.845 36.635 146.845 35.1333 145.336L24.6571 134.86C23.1483 133.351 23.1483 130.9 24.8058 129.243C26.0029 127.897 26.8246 125.233 23.9417 120.211C20.9525 115.033 18.5158 109.112 16.7096 102.623C15.3354 97.6933 12.8988 96.5671 10.9508 96.2767C8.81876 96.2767 7.08334 94.5483 7.08334 92.4163V77.5979C7.08334 75.4658 8.81876 73.7375 11.475 73.695C12.6013 73.5321 15.3567 72.5758 16.6954 67.4192C18.3388 61.1433 20.7329 55.2713 23.8354 49.9517C26.9379 44.5967 25.9888 41.8979 24.6642 40.6088C23.1554 39.1 23.1554 36.6492 24.6642 35.1475L35.1404 24.6713C36.6492 23.1554 39.1 23.1625 40.6583 24.7279C41.6075 25.6417 44.4196 27.4054 49.9021 23.8638C54.5204 20.8675 60.2367 18.53 67.3554 16.7238C73.2063 15.2433 73.7588 12.1408 73.7304 10.9579C73.7304 8.82583 75.4588 7.09042 77.5908 7.09042H92.4092C94.5413 7.09042 96.2696 8.82583 96.2696 10.8658C96.2413 12.1408 96.7938 15.2433 102.645 16.7238C109.763 18.53 115.48 20.8675 120.098 23.8638C125.573 27.3913 128.385 25.6417 129.391 24.6713C130.9 23.1625 133.351 23.1625 134.853 24.6713L145.329 35.1475C146.838 36.6563 146.838 39.1071 145.357 40.5875C144.011 41.9121 143.055 44.6038 146.158 49.9588C149.26 55.2783 151.647 61.1504 153.29 67.4192C154.636 72.5829 157.392 73.5321 159.042 73.7446C161.174 73.7446 162.91 75.4729 162.91 77.605V92.4233L162.917 92.4092ZM92.0833 63.75C92.0833 67.66 88.91 70.8333 85 70.8333C81.09 70.8333 77.9167 67.66 77.9167 63.75C77.9167 59.84 81.09 56.6667 85 56.6667C88.91 56.6667 92.0833 59.84 92.0833 63.75ZM113.333 85C113.333 88.91 110.16 92.0833 106.25 92.0833C102.34 92.0833 99.1667 88.91 99.1667 85C99.1667 81.09 102.34 77.9167 106.25 77.9167C110.16 77.9167 113.333 81.09 113.333 85ZM70.8333 85C70.8333 88.91 67.66 92.0833 63.75 92.0833C59.84 92.0833 56.6667 88.91 56.6667 85C56.6667 81.09 59.84 77.9167 63.75 77.9167C67.66 77.9167 70.8333 81.09 70.8333 85ZM92.0833 106.25C92.0833 110.16 88.91 113.333 85 113.333C81.09 113.333 77.9167 110.16 77.9167 106.25C77.9167 102.34 81.09 99.1667 85 99.1667C88.91 99.1667 92.0833 102.34 92.0833 106.25Z" fill="black"/>
</g>
<defs>
<clipPath id="clip0_1_822">
<rect width="170" height="170" fill="white"/>
</clipPath>
</defs>
</svg>
