<svg width="185" height="185" viewBox="0 0 185 185" fill="none" xmlns="http://www.w3.org/2000/svg">
<g clip-path="url(#clip0_1_644)">
<path d="M101.938 103.179L109.935 91.1841L95.5466 76.7959L91.3274 81.0151L102.257 91.945L94.9438 102.914L95.8688 104.519C97.6472 107.61 99.0288 110.949 99.9717 114.443L100.452 116.231L113.387 118.818V131.827L100.449 134.414L99.9687 136.202C99.0258 139.699 97.6442 143.038 95.8659 146.126L101.037 149.104C102.768 146.102 104.164 142.895 105.208 139.55L119.355 136.721V113.924L105.208 111.095C104.355 108.35 103.257 105.701 101.938 103.179Z" fill="black"/>
<path d="M93.055 167.902L82.0833 160.589L80.478 161.514C77.3897 163.292 74.0507 164.674 70.5536 165.617L68.7663 166.097L66.1823 179.032H53.1726L50.5856 166.094L48.7982 165.614C45.3011 164.671 41.9622 163.289 38.8739 161.511L37.2685 160.586L26.2998 167.902L17.0976 158.7L24.411 147.728L23.486 146.123C21.7077 143.035 20.3261 139.696 19.3832 136.199L18.9028 134.411L5.96774 131.827V118.818L18.9058 116.231L19.3862 114.443C20.3291 110.949 21.7106 107.607 23.489 104.519L18.318 101.541C16.5873 104.546 15.1909 107.751 14.1465 111.095L0 113.924V136.721L14.1465 139.55C15.0029 142.292 16.098 144.945 17.4169 147.463L9.42008 159.461L25.539 175.58L37.5371 167.583C40.0585 168.902 42.7081 170 45.4503 170.853L48.279 185H71.0758L73.9045 170.853C76.6467 169.997 79.2994 168.902 81.8177 167.583L93.8159 175.58L108.204 161.192L103.985 156.973L93.055 167.902Z" fill="black"/>
<path d="M26.2997 82.7427L37.2714 90.0562L38.8768 89.1312C41.9591 87.3528 45.2981 85.9743 48.7981 85.0284L50.5855 84.548L53.1725 71.6129H66.1822L68.4081 82.7368L74.2595 81.5641L71.0757 65.6451H48.2789L45.4502 79.7917C42.7051 80.648 40.0524 81.7431 37.534 83.062L25.5389 75.0652L11.1506 89.4534L15.3698 93.6726L26.2997 82.7427Z" fill="black"/>
<path d="M173.064 47.7419C167.52 47.7419 162.886 51.5613 161.553 56.6936H155.161V0H149.193V56.6936H143.226V11.9355H137.258V56.6936H131.29V23.871H125.322V56.6936H119.355V17.9032H113.387V56.6936H107.419V29.8387H101.452V56.6936H93.7114L71.2727 97.8292C67.7069 96.3194 63.7891 95.4839 59.6773 95.4839C43.2243 95.4839 29.8386 108.87 29.8386 125.323C29.8386 141.776 43.2243 155.161 59.6773 155.161C76.1304 155.161 89.516 141.776 89.516 125.323C89.516 115.109 84.3539 106.086 76.5064 100.703L97.2562 62.6613H161.553C162.886 67.7935 167.52 71.6129 173.064 71.6129C179.647 71.6129 185 66.2598 185 59.6774C185 53.095 179.647 47.7419 173.064 47.7419ZM83.5483 125.323C83.5483 138.484 72.8392 149.194 59.6773 149.194C46.5155 149.194 35.8064 138.484 35.8064 125.323C35.8064 112.161 46.5155 101.452 59.6773 101.452C62.7537 101.452 65.6839 102.057 68.3873 103.12L62.5717 113.781C61.6407 113.548 60.6799 113.387 59.6773 113.387C53.0949 113.387 47.7418 118.74 47.7418 125.323C47.7418 131.905 53.0949 137.258 59.6773 137.258C66.2598 137.258 71.6128 131.905 71.6128 125.323C71.6128 121.891 70.1388 118.818 67.8114 116.64L73.621 105.99C79.6215 110.329 83.5483 117.368 83.5483 125.323ZM65.6451 125.323C65.6451 128.614 62.9685 131.29 59.6773 131.29C56.3861 131.29 53.7096 128.614 53.7096 125.323C53.7096 122.031 56.3861 119.355 59.6773 119.355C62.9685 119.355 65.6451 122.031 65.6451 125.323ZM173.064 65.6452C169.773 65.6452 167.097 62.9686 167.097 59.6774C167.097 56.3862 169.773 53.7097 173.064 53.7097C176.356 53.7097 179.032 56.3862 179.032 59.6774C179.032 62.9686 176.356 65.6452 173.064 65.6452Z" fill="black"/>
</g>
<defs>
<clipPath id="clip0_1_644">
<rect width="185" height="185" fill="white"/>
</clipPath>
</defs>
</svg>
